<?xml version="1.0" standalone="no"?><!DOCTYPE svg PUBLIC "-//W3C//DTD SVG 1.1//EN" "http://www.w3.org/Graphics/SVG/1.1/DTD/svg11.dtd"><svg t="1585019257796" class="icon" viewBox="0 0 3072 1024" version="1.1" xmlns="http://www.w3.org/2000/svg" p-id="8407" width="192" height="64" xmlns:xlink="http://www.w3.org/1999/xlink"><defs><style type="text/css"></style></defs><path d="M912.384 502.613333A456.106667 456.106667 0 0 0 456.704 46.933333a456.106667 456.106667 0 0 0-455.68 455.68 456.106667 456.106667 0 0 0 455.68 455.68 456.106667 456.106667 0 0 0 455.68-455.68z" fill="#F56C6C" p-id="8408"></path><path d="M402.773333 782.933333c0 34.816 25.173333 61.866667 58.026667 61.866667 32.853333 0 58.026667-27.050667 58.026667-61.866667s-25.173333-61.866667-58.026667-61.866666a61.610667 61.610667 0 0 0-58.026667 61.866666m58.026667-116.053333a53.674667 53.674667 0 0 1-52.224-54.186667V216.32c0-34.816 25.173333-54.186667 52.224-54.186667 25.173333 0 52.224 21.333333 52.224 54.186667V612.693333c-1.962667 27.136-27.050667 54.186667-52.224 54.186667" fill="#FFFFFF" p-id="8409"></path><path d="M2888.192 2.730667H671.317333a544.426667 544.426667 0 0 1 329.472 499.882666 545.024 545.024 0 0 1-329.472 499.882667h2216.96a176.896 176.896 0 0 0 176.896-176.896v-645.973333A176.896 176.896 0 0 0 2888.192 2.730667zM2335.914667 244.906667c31.573333 24.661333 71.253333 60.330667 89.429333 83.285333l-26.453333 26.453333c-18.432-24.064-57.173333-60.757333-88.405334-86.784l25.429334-23.04z m-549.632-4.437334c28.842667 24.661333 66.56 59.648 86.101333 80.213334l-27.136 27.392c-18.773333-21.930667-56.917333-58.624-84.992-84.309334l26.026667-23.296z m6.826666 486.144a114.602667 114.602667 0 0 0-21.248-28.16c11.690667-7.850667 30.890667-26.368 30.890667-52.736V445.354667h-98.730667v-36.693334h135.424v238.336l74.069334-49.408c2.730667 9.642667 7.850667 23.978667 10.922666 30.890667-108.373333 76.117333-123.392 87.04-131.328 98.048z m405.674667 24.746667c-84.053333-55.637333-123.477333-157.44-145.066667-238.677333-17.834667 98.048-55.466667 183.04-133.717333 239.957333a125.610667 125.610667 0 0 0-29.184-26.453333c144.042667-99.669333 141.653333-301.653333 143.018667-497.066667h38.058666c0 60.330667-0.682667 120.661333-4.437333 178.944 9.216 55.210667 36.693333 237.653333 160.085333 315.136-10.24 7.168-21.930667 18.176-28.757333 28.16z m156.672-16.896c-5.12-7.509333-17.152-20.48-24.064-26.453333 11.008-8.533333 31.573333-29.013333 31.573333-58.538667V445.013333h-82.602666v-36.693333h119.296v241.749333l59.733333-44.885333c4.010667 10.24 10.24 25.344 15.018667 32.512-96 74.410667-110.762667 85.76-118.954667 96.682667zM1382.912 221.866667v93.525333h191.146667v41.898667h-191.146667v98.730666h230.656v41.813334h-205.994667c52.224 73.557333 139.434667 145.237333 219.221334 180.224a190.293333 190.293333 0 0 0-30.976 36.181333c-75.776-37.888-157.269333-109.056-212.906667-185.344V745.813333h-44.202667V531.2c-55.637333 76.288-136.021333 144.64-211.2 182.442667a225.450667 225.450667 0 0 0-30.976-34.986667c79.786667-35.584 166.4-106.666667 218.112-180.736h-202.581333v-41.898667h226.645333V357.290667h-185.344v-41.813334h185.344V221.866667h44.202667z m1402.453333 52.394666v36.010667h-126.122666v152.576h115.882666v36.010667h-115.882666V692.906667h138.837333v35.669333h-347.306667V692.906667h50.346667V415.232h37.376V692.906667h81.237333V310.272h-148.48v-36.010667h314.112z" fill="#F56C6C" p-id="8410"></path></svg>