<?xml version="1.0" standalone="no"?><!DOCTYPE svg PUBLIC "-//W3C//DTD SVG 1.1//EN" "http://www.w3.org/Graphics/SVG/1.1/DTD/svg11.dtd"><svg t="1585900197859" class="icon" viewBox="0 0 1024 1024" version="1.1" xmlns="http://www.w3.org/2000/svg" p-id="8323" xmlns:xlink="http://www.w3.org/1999/xlink" width="200" height="200"><defs><style type="text/css"></style></defs><path d="M633.553 251.102c15.993-12.795 38.385-12.795 55.978 1.6 15.993 15.993 15.993 38.384 0 54.378L347.264 647.747c-22.39 20.792-22.39 57.577 0 81.568 20.792 22.391 57.578 22.391 81.568 0l401.444-403.042c55.978-55.979 55.978-148.742 0-204.72s-148.742-55.979-204.72 0l-47.982 47.98-12.795 12.796-369.455 369.455c-91.165 91.165-91.165 236.708 0 327.872 91.164 91.165 236.707 91.165 327.872 0L894.25 511.8c6.397-3.199 9.596-7.997 12.795-12.795 15.993-15.994 38.385-15.994 54.378 0s15.994 38.385 0 54.379l-3.198 3.199c-3.2 1.599-6.398 6.397-9.597 9.596L577.574 934.035c-119.953 119.953-316.676 119.953-436.63 0s-119.952-316.676 0-436.63l430.233-431.83c86.366-86.367 227.111-86.367 315.077 0 86.366 86.366 86.366 227.11 0 315.076L483.21 783.694c-52.78 52.78-139.145 52.78-190.325 0-52.78-52.78-52.78-139.146 0-190.326l340.667-342.266z m0 0" fill="#ffffff" p-id="8324"></path></svg>