<?xml version="1.0" standalone="no"?><!DOCTYPE svg PUBLIC "-//W3C//DTD SVG 1.1//EN" "http://www.w3.org/Graphics/SVG/1.1/DTD/svg11.dtd"><svg t="1584779265755" class="icon" viewBox="0 0 1024 1024" version="1.1" xmlns="http://www.w3.org/2000/svg" p-id="7221" xmlns:xlink="http://www.w3.org/1999/xlink" width="200" height="200"><defs><style type="text/css"></style></defs><path d="M842.666667 981.333333H181.333333a53.393333 53.393333 0 0 1-53.333333-53.333333V96a53.393333 53.393333 0 0 1 53.333333-53.333333h466.746667a52.986667 52.986667 0 0 1 37.713333 15.62l194.586667 194.586666a52.986667 52.986667 0 0 1 15.62 37.713334V928a53.393333 53.393333 0 0 1-53.333333 53.333333zM181.333333 85.333333a10.666667 10.666667 0 0 0-10.666666 10.666667v832a10.666667 10.666667 0 0 0 10.666666 10.666667h661.333334a10.666667 10.666667 0 0 0 10.666666-10.666667V298.666667h-160a53.393333 53.393333 0 0 1-53.333333-53.333334V85.333333z m501.333334 30.166667V245.333333a10.666667 10.666667 0 0 0 10.666666 10.666667h129.833334zM320 810.666667a21.333333 21.333333 0 0 1-21.04-24.84l21.333333-128a21.333333 21.333333 0 0 1 5.953334-11.58l254.706666-254.706667a53.333333 53.333333 0 0 1 75.426667 0l61.413333 61.413333a53.333333 53.333333 0 0 1 0 75.426667l-254.706666 254.706667a21.333333 21.333333 0 0 1-11.58 5.953333l-128 21.333333a20.746667 20.746667 0 0 1-3.506667 0.293334z m41.253333-139.08l-15.333333 91.793333 91.793333-15.333333 249.873334-249.873334a10.666667 10.666667 0 0 0 0-15.08l-61.413334-61.413333a10.666667 10.666667 0 0 0-15.08 0zM405.333333 469.333333H277.333333a21.333333 21.333333 0 0 1 0-42.666666h128a21.333333 21.333333 0 0 1 0 42.666666z m85.333334-170.666666H277.333333a21.333333 21.333333 0 0 1 0-42.666667h213.333334a21.333333 21.333333 0 0 1 0 42.666667z" fill="#5C5C66" p-id="7222"></path></svg>