<?xml version="1.0" standalone="no"?><!DOCTYPE svg PUBLIC "-//W3C//DTD SVG 1.1//EN" "http://www.w3.org/Graphics/SVG/1.1/DTD/svg11.dtd"><svg t="1586827792708" class="icon" viewBox="0 0 1024 1024" version="1.1" xmlns="http://www.w3.org/2000/svg" p-id="7160" xmlns:xlink="http://www.w3.org/1999/xlink" width="200" height="200"><defs><style type="text/css"></style></defs><path d="M885.333333 128H138.666667a53.393333 53.393333 0 0 0-53.333334 53.333333v533.333334a53.393333 53.393333 0 0 0 53.333334 53.333333h266c-4.48 73.686667-31.9 108.213333-50.953334 128H320a21.333333 21.333333 0 0 0 0 42.666667h384a21.333333 21.333333 0 0 0 0-42.666667h-33.746667c-19.053333-19.786667-46.473333-54.313333-50.953333-128h266a53.393333 53.393333 0 0 0 53.333333-53.333333V181.333333a53.393333 53.393333 0 0 0-53.3-53.333333zM138.666667 170.666667h746.666666a10.666667 10.666667 0 0 1 10.666667 10.666666v416H128V181.333333a10.666667 10.666667 0 0 1 10.666667-10.666666z m476.613333 725.333333H408.72c17.926667-26.6 35.393333-66.52 38.713333-128h129.133334c3.32 61.48 20.766667 101.4 38.713333 128zM885.333333 725.333333H138.666667a10.666667 10.666667 0 0 1-10.666667-10.666666V640h768v74.666667a10.666667 10.666667 0 0 1-10.666667 10.666666zM298.666667 469.333333a42.713333 42.713333 0 0 0-42.666667-42.666666 85.333333 85.333333 0 0 1 0-170.666667h64a21.333333 21.333333 0 0 1 0 42.666667h-64a42.666667 42.666667 0 0 0 0 85.333333 85.333333 85.333333 0 0 1 0 170.666667h-64a21.333333 21.333333 0 0 1 0-42.666667h64a42.713333 42.713333 0 0 0 42.666667-42.666667z m512 0a42.713333 42.713333 0 0 0-42.666667-42.666666 85.333333 85.333333 0 0 1 0-170.666667h64a21.333333 21.333333 0 0 1 0 42.666667h-64a42.666667 42.666667 0 0 0 0 85.333333 85.333333 85.333333 0 0 1 0 170.666667h-64a21.333333 21.333333 0 0 1 0-42.666667h64a42.713333 42.713333 0 0 0 42.666667-42.666667z m-421.72 50.34L484.233333 405.333333 388.946667 290.993333a21.333333 21.333333 0 1 1 32.773333-27.333333L512 372l90.28-108.333333a21.333333 21.333333 0 0 1 32.773333 27.333333l-213.333333 256a21.333333 21.333333 0 1 1-32.773333-27.333333z" fill="#5C5C66" p-id="7161"></path></svg>