<?xml version="1.0" standalone="no"?><!DOCTYPE svg PUBLIC "-//W3C//DTD SVG 1.1//EN" "http://www.w3.org/Graphics/SVG/1.1/DTD/svg11.dtd"><svg t="1584773153298" class="icon" viewBox="0 0 1024 1024" version="1.1" xmlns="http://www.w3.org/2000/svg" p-id="8586" xmlns:xlink="http://www.w3.org/1999/xlink" width="200" height="200"><defs><style type="text/css"></style></defs><path d="M304 682.666667H165.333333a37.373333 37.373333 0 0 0-37.333333 37.333333v224a37.373333 37.373333 0 0 0 37.333333 37.333333h138.666667a37.373333 37.373333 0 0 0 37.333333-37.333333v-224a37.373333 37.373333 0 0 0-37.333333-37.333333z m-5.333333 256H170.666667v-213.333334h128z m304-384H464a37.373333 37.373333 0 0 0-37.333333 37.333333v352a37.373333 37.373333 0 0 0 37.333333 37.333333h138.666667a37.373333 37.373333 0 0 0 37.333333-37.333333V592a37.373333 37.373333 0 0 0-37.333333-37.333333z m-5.333334 384H469.333333V597.333333h128z m304-554.666667h-138.666666a37.373333 37.373333 0 0 0-37.333334 37.333333v522.666667a37.373333 37.373333 0 0 0 37.333334 37.333333h138.666666a37.373333 37.373333 0 0 0 37.333334-37.333333V421.333333a37.373333 37.373333 0 0 0-37.333334-37.333333z m-5.333333 554.666667h-128V426.666667h128z m42.666667-874.666667v128a21.333333 21.333333 0 0 1-42.666667 0V115.5L633.753333 377.753333a21.333333 21.333333 0 0 1-30.173333 0L490.666667 264.833333 164.42 591.086667a21.333333 21.333333 0 0 1-30.173333-30.173334l341.333333-341.333333a21.333333 21.333333 0 0 1 30.173333 0L618.666667 332.5 865.833333 85.333333H789.333333a21.333333 21.333333 0 0 1 0-42.666666h128a21.213333 21.213333 0 0 1 14.993334 6.16l0.046666 0.046666A21.213333 21.213333 0 0 1 938.666667 64z" fill="#5C5C66" p-id="8587"></path></svg>