<?xml version="1.0" standalone="no"?><!DOCTYPE svg PUBLIC "-//W3C//DTD SVG 1.1//EN" "http://www.w3.org/Graphics/SVG/1.1/DTD/svg11.dtd"><svg t="1586259519555" class="icon" viewBox="0 0 1024 1024" version="1.1" xmlns="http://www.w3.org/2000/svg" p-id="6958" xmlns:xlink="http://www.w3.org/1999/xlink" width="200" height="200"><defs><style type="text/css"></style></defs><path d="M981.333333 960a21.333333 21.333333 0 0 1-21.333333 21.333333H64a21.333333 21.333333 0 0 1-21.333333-21.333333V64a21.333333 21.333333 0 0 1 42.666666 0v874.666667h874.666667a21.333333 21.333333 0 0 1 21.333333 21.333333zM170.666667 661.333333a64 64 0 0 1 91.593333-57.76l128-128a64 64 0 1 1 115.52 0l64 64a64.153333 64.153333 0 0 1 51-1.82l198.28-228.786666a63.94 63.94 0 1 1 32.24 27.946666L652.98 565.7a64 64 0 1 1-113.406667 4.04l-64-64a64.126667 64.126667 0 0 1-55.186666 0l-128 128A64 64 0 1 1 170.666667 661.333333z m682.666666-384a21.333333 21.333333 0 1 0 21.333334-21.333333 21.333333 21.333333 0 0 0-21.333334 21.333333zM597.333333 576a21.333333 21.333333 0 1 0 21.333334 21.333333 21.333333 21.333333 0 0 0-21.333334-21.333333zM426.666667 448a21.333333 21.333333 0 1 0 21.333333-21.333333 21.333333 21.333333 0 0 0-21.333333 21.333333zM213.333333 661.333333a21.333333 21.333333 0 1 0 21.333334-21.333333 21.333333 21.333333 0 0 0-21.333334 21.333333z" fill="#303133" p-id="6959"></path></svg>