<?xml version="1.0" standalone="no"?><!DOCTYPE svg PUBLIC "-//W3C//DTD SVG 1.1//EN" "http://www.w3.org/Graphics/SVG/1.1/DTD/svg11.dtd"><svg t="1584772555422" class="icon" viewBox="0 0 1024 1024" version="1.1" xmlns="http://www.w3.org/2000/svg" p-id="8058" xmlns:xlink="http://www.w3.org/1999/xlink" width="200" height="200"><defs><style type="text/css"></style></defs><path d="M970.666667 298.666667H96a53.393333 53.393333 0 0 0-53.333333 53.333333v533.333333a53.393333 53.393333 0 0 0 53.333333 53.333334h874.666667a53.393333 53.393333 0 0 0 53.333333-53.333334V352a53.393333 53.393333 0 0 0-53.333333-53.333333z m10.666666 586.666666a10.666667 10.666667 0 0 1-10.666666 10.666667H96a10.666667 10.666667 0 0 1-10.666667-10.666667V352a10.666667 10.666667 0 0 1 10.666667-10.666667h874.666667a10.666667 10.666667 0 0 1 10.666666 10.666667z m-64-416a64.073333 64.073333 0 0 1-64-64 21.333333 21.333333 0 0 0-21.333333-21.333333H234.666667a21.333333 21.333333 0 0 0-21.333334 21.333333 64.073333 64.073333 0 0 1-64 64 21.333333 21.333333 0 0 0-21.333333 21.333334v256a21.333333 21.333333 0 0 0 21.333333 21.333333 64.073333 64.073333 0 0 1 64 64 21.333333 21.333333 0 0 0 21.333334 21.333333h597.333333a21.333333 21.333333 0 0 0 21.333333-21.333333 64.073333 64.073333 0 0 1 64-64 21.333333 21.333333 0 0 0 21.333334-21.333333V490.666667a21.333333 21.333333 0 0 0-21.333334-21.333334z m-21.333333 258.14A107.006667 107.006667 0 0 0 812.806667 810.666667H253.86A107.006667 107.006667 0 0 0 170.666667 727.473333V509.86A107.006667 107.006667 0 0 0 253.86 426.666667h558.946667A107.006667 107.006667 0 0 0 896 509.86zM298.666667 618.666667a21.333333 21.333333 0 1 1-21.333334-21.333334 21.333333 21.333333 0 0 1 21.333334 21.333334z m512 0a21.333333 21.333333 0 1 1-21.333334-21.333334 21.333333 21.333333 0 0 1 21.333334 21.333334z m-128 0c0 82.473333-66.86 149.333333-149.333334 149.333333s-149.333333-66.86-149.333333-149.333333 66.86-149.333333 149.333333-149.333334 149.333333 66.86 149.333334 149.333334zM533.333333 512a106.666667 106.666667 0 1 0 106.666667 106.666667 106.666667 106.666667 0 0 0-106.666667-106.666667z m426.666667-256H106.666667a21.333333 21.333333 0 0 1 0-42.666667h853.333333a21.333333 21.333333 0 0 1 0 42.666667z m-42.666667-85.333333H149.333333a21.333333 21.333333 0 0 1 0-42.666667h768a21.333333 21.333333 0 0 1 0 42.666667z" fill="#5C5C66" p-id="8059"></path></svg>