<?xml version="1.0" standalone="no"?><!DOCTYPE svg PUBLIC "-//W3C//DTD SVG 1.1//EN" "http://www.w3.org/Graphics/SVG/1.1/DTD/svg11.dtd"><svg t="1584794120955" class="icon" viewBox="0 0 1024 1024" version="1.1" xmlns="http://www.w3.org/2000/svg" p-id="6959" xmlns:xlink="http://www.w3.org/1999/xlink" width="200" height="200"><defs><style type="text/css"></style></defs><path d="M586.666667 981.333333H138.666667a53.393333 53.393333 0 0 1-53.333334-53.333333V138.666667a53.393333 53.393333 0 0 1 53.333334-53.333334h448a53.393333 53.393333 0 0 1 53.333333 53.333334v138.666666a21.333333 21.333333 0 0 1-42.666667 0V138.666667a10.666667 10.666667 0 0 0-10.666666-10.666667H138.666667a10.666667 10.666667 0 0 0-10.666667 10.666667v789.333333a10.666667 10.666667 0 0 0 10.666667 10.666667h448a10.666667 10.666667 0 0 0 10.666666-10.666667v-138.666667a21.333333 21.333333 0 0 1 42.666667 0v138.666667a53.393333 53.393333 0 0 1-53.333333 53.333333z m160-256a21.333333 21.333333 0 0 1-15.086667-36.42L865.833333 554.666667H362.666667a21.333333 21.333333 0 0 1 0-42.666667h503.166666l-134.253333-134.246667a21.333333 21.333333 0 0 1 30.173333-30.173333l170.666667 170.666667a21.333333 21.333333 0 0 1 0 30.173333l-170.666667 170.666667A21.266667 21.266667 0 0 1 746.666667 725.333333z" fill="#EA3939" p-id="6960"></path></svg>