<?xml version="1.0" standalone="no"?><!DOCTYPE svg PUBLIC "-//W3C//DTD SVG 1.1//EN" "http://www.w3.org/Graphics/SVG/1.1/DTD/svg11.dtd"><svg t="1585105576291" class="icon" viewBox="0 0 1024 1024" version="1.1" xmlns="http://www.w3.org/2000/svg" p-id="7242" xmlns:xlink="http://www.w3.org/1999/xlink" width="200" height="200"><defs><style type="text/css"></style></defs><path d="M928 298.666667h-149.333333a53.393333 53.393333 0 0 1-53.333334-53.333334V96a53.393333 53.393333 0 0 1 53.333334-53.333333h149.333333a53.393333 53.393333 0 0 1 53.333333 53.333333v149.333333a53.393333 53.393333 0 0 1-53.333333 53.333334z m-149.333333-213.333334a10.666667 10.666667 0 0 0-10.666667 10.666667v149.333333a10.666667 10.666667 0 0 0 10.666667 10.666667h149.333333a10.666667 10.666667 0 0 0 10.666667-10.666667V96a10.666667 10.666667 0 0 0-10.666667-10.666667zM245.333333 298.666667H96a53.393333 53.393333 0 0 1-53.333333-53.333334V96a53.393333 53.393333 0 0 1 53.333333-53.333333h149.333333a53.393333 53.393333 0 0 1 53.333334 53.333333v149.333333a53.393333 53.393333 0 0 1-53.333334 53.333334zM96 85.333333a10.666667 10.666667 0 0 0-10.666667 10.666667v149.333333a10.666667 10.666667 0 0 0 10.666667 10.666667h149.333333a10.666667 10.666667 0 0 0 10.666667-10.666667V96a10.666667 10.666667 0 0 0-10.666667-10.666667z m522.666667 151.1a21.333333 21.333333 0 0 1-21.333334-21.333333V96a10.666667 10.666667 0 0 0-10.666666-10.666667H437.333333a10.666667 10.666667 0 0 0-10.586666 9.333334 21.333333 21.333333 0 1 1-42.346667-5.186667A53.366667 53.366667 0 0 1 437.333333 42.666667h149.333334a53.393333 53.393333 0 0 1 53.333333 53.333333v119.1a21.333333 21.333333 0 0 1-21.333333 21.333333zM245.333333 640H96a53.393333 53.393333 0 0 1-53.333333-53.333333V437.333333a53.393333 53.393333 0 0 1 53.333333-53.333333h149.333333a53.393333 53.393333 0 0 1 53.333334 53.333333v149.333334a53.393333 53.393333 0 0 1-53.333334 53.333333zM96 426.666667a10.666667 10.666667 0 0 0-10.666667 10.666666v149.333334a10.666667 10.666667 0 0 0 10.666667 10.666666h149.333333a10.666667 10.666667 0 0 0 10.666667-10.666666V437.333333a10.666667 10.666667 0 0 0-10.666667-10.666666z m149.333333 554.666666H96a53.393333 53.393333 0 0 1-53.333333-53.333333v-149.333333a53.393333 53.393333 0 0 1 53.333333-53.333334h149.333333a53.393333 53.393333 0 0 1 53.333334 53.333334v149.333333a53.393333 53.393333 0 0 1-53.333334 53.333333z m-149.333333-213.333333a10.666667 10.666667 0 0 0-10.666667 10.666667v149.333333a10.666667 10.666667 0 0 0 10.666667 10.666667h149.333333a10.666667 10.666667 0 0 0 10.666667-10.666667v-149.333333a10.666667 10.666667 0 0 0-10.666667-10.666667z m655.426667 225.953333a53.366667 53.366667 0 0 1-46.28-26.666666L574.766667 741.466667l-154.666667 148.586666A21.333333 21.333333 0 0 1 384 874.666667V192a21.333333 21.333333 0 0 1 10.666667-18.473333c3.206667-1.853333 11.746667-5.533333 21.76 0.246666l91.946666 53.086667 498.833334 288a21.333333 21.333333 0 0 1-4.733334 38.966667l-206 59.64 130.386667 225.826666a53.333333 53.333333 0 0 1-19.526667 72.86l-129.333333 74.666667a53.02 53.02 0 0 1-26.573333 7.133333z m-171.806667-308.073333a20.666667 20.666667 0 0 1 3 0.213333 21.333333 21.333333 0 0 1 15.48 10.453334l144 249.413333a10.666667 10.666667 0 0 0 14.566667 3.906667l129.333333-74.666667a10.666667 10.666667 0 0 0 3.906667-14.573333l-144-249.413334a21.333333 21.333333 0 0 1 12.546666-31.16l184.053334-53.286666L426.666667 228.953333v595.633334l138.18-132.76a21.333333 21.333333 0 0 1 14.773333-5.946667z" fill="#5C5C66" p-id="7243"></path></svg>