<?xml version="1.0" standalone="no"?><!DOCTYPE svg PUBLIC "-//W3C//DTD SVG 1.1//EN" "http://www.w3.org/Graphics/SVG/1.1/DTD/svg11.dtd"><svg t="1585105471953" class="icon" viewBox="0 0 1024 1024" version="1.1" xmlns="http://www.w3.org/2000/svg" p-id="6958" xmlns:xlink="http://www.w3.org/1999/xlink" width="200" height="200"><defs><style type="text/css"></style></defs><path d="M416 85.333333H138.666667a53.393333 53.393333 0 0 0-53.333334 53.333334v277.333333a53.393333 53.393333 0 0 0 53.333334 53.333333h277.333333a53.393333 53.393333 0 0 0 53.333333-53.333333V138.666667a53.393333 53.393333 0 0 0-53.333333-53.333334z m10.666667 330.666667a10.666667 10.666667 0 0 1-10.666667 10.666667H138.666667a10.666667 10.666667 0 0 1-10.666667-10.666667V138.666667a10.666667 10.666667 0 0 1 10.666667-10.666667h277.333333a10.666667 10.666667 0 0 1 10.666667 10.666667z m-10.666667 138.666667H138.666667a53.393333 53.393333 0 0 0-53.333334 53.333333v277.333333a53.393333 53.393333 0 0 0 53.333334 53.333334h277.333333a53.393333 53.393333 0 0 0 53.333333-53.333334V608a53.393333 53.393333 0 0 0-53.333333-53.333333z m10.666667 330.666666a10.666667 10.666667 0 0 1-10.666667 10.666667H138.666667a10.666667 10.666667 0 0 1-10.666667-10.666667V608a10.666667 10.666667 0 0 1 10.666667-10.666667h277.333333a10.666667 10.666667 0 0 1 10.666667 10.666667z m458.666666-330.666666H608a53.393333 53.393333 0 0 0-53.333333 53.333333v277.333333a53.393333 53.393333 0 0 0 53.333333 53.333334h277.333333a53.393333 53.393333 0 0 0 53.333334-53.333334V608a53.393333 53.393333 0 0 0-53.333334-53.333333z m10.666667 330.666666a10.666667 10.666667 0 0 1-10.666667 10.666667H608a10.666667 10.666667 0 0 1-10.666667-10.666667V608a10.666667 10.666667 0 0 1 10.666667-10.666667h277.333333a10.666667 10.666667 0 0 1 10.666667 10.666667z m-187.046667-423.54a53.4 53.4 0 0 0 75.426667 0l146.746667-146.746666a53.4 53.4 0 0 0 0-75.426667l-146.746667-146.746667a53.4 53.4 0 0 0-75.426667 0L562.206667 239.62a53.4 53.4 0 0 0 0 75.426667z m-116.573333-192l146.746667-146.746666a10.666667 10.666667 0 0 1 15.08 0l146.746666 146.746666a10.666667 10.666667 0 0 1 0 15.08l-146.746666 146.746667a10.666667 10.666667 0 0 1-15.08 0L592.38 284.873333a10.666667 10.666667 0 0 1 0-15.08z" fill="#303133" p-id="6959"></path></svg>