<?xml version="1.0" standalone="no"?><!DOCTYPE svg PUBLIC "-//W3C//DTD SVG 1.1//EN" "http://www.w3.org/Graphics/SVG/1.1/DTD/svg11.dtd"><svg t="1585019323574" class="icon" viewBox="0 0 3072 1024" version="1.1" xmlns="http://www.w3.org/2000/svg" p-id="1681" width="192" height="64" xmlns:xlink="http://www.w3.org/1999/xlink"><defs><style type="text/css"></style></defs><path d="M912.384 502.613333A456.106667 456.106667 0 0 0 456.704 46.933333a456.106667 456.106667 0 0 0-455.68 455.68 456.106667 456.106667 0 0 0 455.68 455.68 456.106667 456.106667 0 0 0 455.68-455.68z m-162.133333-129.28L446.976 676.778667c-0.341333 0.341333-0.341333 1.024-0.682667 1.365333l-17.834666 17.92a32.085333 32.085333 0 0 1-23.296 9.216 32.085333 32.085333 0 0 1-23.296-9.301333l-17.834667-17.834667c-0.682667-0.341333-0.341333-1.024-0.682667-1.365333l-200.533333-200.533334a33.109333 33.109333 0 0 1 0-45.994666l17.749333-17.834667a32.426667 32.426667 0 0 1 45.994667 0l178.602667 178.688 281.514666-281.173333a32.085333 32.085333 0 0 1 45.568 0l17.92 17.92a32.085333 32.085333 0 0 1 0 45.482666z" fill="#6ED3FF" p-id="1682"></path><path d="M912.384 502.613333A456.106667 456.106667 0 0 0 456.704 46.933333a456.106667 456.106667 0 0 0-455.68 455.68 456.106667 456.106667 0 0 0 455.68 455.68 456.106667 456.106667 0 0 0 455.68-455.68z m-162.133333-129.28L446.976 676.778667c-0.341333 0.341333-0.341333 1.024-0.682667 1.365333l-17.834666 17.92a32.085333 32.085333 0 0 1-23.296 9.216 32.085333 32.085333 0 0 1-23.296-9.301333l-17.834667-17.834667c-0.682667-0.341333-0.341333-1.024-0.682667-1.365333l-200.533333-200.533334a33.109333 33.109333 0 0 1 0-45.994666l17.749333-17.834667a32.426667 32.426667 0 0 1 45.994667 0l178.602667 178.688 281.514666-281.173333a32.085333 32.085333 0 0 1 45.568 0l17.92 17.92a32.085333 32.085333 0 0 1 0 45.482666z" fill="#67C23A" p-id="1683"></path><path d="M2888.192 2.730667H671.317333a544.426667 544.426667 0 0 1 329.472 499.882666 545.024 545.024 0 0 1-329.472 499.882667h2216.96a176.896 176.896 0 0 0 176.896-176.896v-645.973333A176.896 176.896 0 0 0 2888.192 2.730667z" fill="#67C23A" p-id="1684"></path><path d="M1608.106667 499.712v-238.933333h-442.026667v41.813333h398.421333v155.904h-331.52V370.090667h-43.008v313.6c0 48.981333 23.893333 74.069333 72.277334 74.069333h323.754666c25.088-1.194667 44.8-7.765333 57.941334-20.309333 14.336-15.530667 24.490667-59.733333 30.464-133.802667l-41.813334-13.141333c-3.584 65.706667-11.349333 103.936-23.296 114.688a55.125333 55.125333 0 0 1-35.242666 10.752h-299.861334c-27.477333 0-41.216-13.738667-41.216-40.021334V499.712h375.125334z m473.088-267.605333c0 115.882667-8.96 210.858667-25.685334 285.525333a417.962667 417.962667 0 0 1-138.581333 221.013333l29.269333 35.242667c79.445333-65.706667 130.218667-150.528 152.917334-253.269333l8.96-47.786667c33.450667 118.272 81.834667 218.624 145.749333 299.861333l31.061333-35.84c-78.250667-89.6-133.205333-211.456-164.864-364.373333 3.584-43.008 5.376-90.197333 5.376-140.373333h-44.202666z m-277.76 2.986666l-29.866667 29.269334c43.008 32.256 77.653333 63.317333 102.741333 92.586666l29.269334-29.866666a681.813333 681.813333 0 0 0-102.144-91.989334z m-69.888 176.810667v41.216h87.808v232.96a32.938667 32.938667 0 0 1-13.738667 25.685333l16.725333 38.229334c41.813333-27.477333 81.237333-59.136 118.272-94.378667l-10.752-44.202667c-24.490667 23.296-47.786667 43.605333-69.290666 61.525334V411.904h-129.024z m967.082666-112.298667v414.549334h-83.626666V398.165333h-41.813334v315.989334h-60.928v42.410666h365.568v-42.410666h-135.594666V507.477333h115.285333v-40.021333h-115.285333V299.605333h123.648v-42.410666h-335.104v42.410666h167.850666z m-297.472-64.512l-29.866666 28.074667c41.813333 32.853333 74.666667 63.914667 99.157333 93.781333l29.269333-29.866666a784.725333 784.725333 0 0 0-98.56-91.989334z m-72.874666 176.810667h127.829333v258.048l29.610667-26.88c10.24-9.557333 20.906667-19.712 31.914666-30.464l11.349334 45.994667c-34.645333 33.450667-71.082667 63.914667-109.909334 90.794666l-16.725333-38.826666a32.256 32.256 0 0 0 12.544-25.088V453.12h-86.613333v-41.216z" fill="#FFFFFF" p-id="1685"></path></svg>