<?xml version="1.0" standalone="no"?><!DOCTYPE svg PUBLIC "-//W3C//DTD SVG 1.1//EN" "http://www.w3.org/Graphics/SVG/1.1/DTD/svg11.dtd"><svg t="1584779062052" class="icon" viewBox="0 0 1024 1024" version="1.1" xmlns="http://www.w3.org/2000/svg" p-id="6959" xmlns:xlink="http://www.w3.org/1999/xlink" width="200" height="200"><defs><style type="text/css"></style></defs><path d="M1005.553333 186A234.666667 234.666667 0 0 0 554.666667 277.333333v106.666667H53.333333a53.393333 53.393333 0 0 0-53.333333 53.333333v490.666667a53.393333 53.393333 0 0 0 53.333333 53.333333h618.666667a53.393333 53.393333 0 0 0 53.333333-53.333333V437.333333a53.393333 53.393333 0 0 0-53.333333-53.333333H597.333333V277.333333c0-105.866667 86.133333-192 192-192s192 86.133333 192 192v128a21.333333 21.333333 0 0 0 42.666667 0V277.333333a233.22 233.22 0 0 0-18.446667-91.333333zM682.666667 437.333333v490.666667a10.666667 10.666667 0 0 1-10.666667 10.666667H53.333333a10.666667 10.666667 0 0 1-10.666666-10.666667V437.333333a10.666667 10.666667 0 0 1 10.666666-10.666666h618.666667a10.666667 10.666667 0 0 1 10.666667 10.666666z" fill="#5C5C66" p-id="6960"></path></svg>