<?xml version="1.0" standalone="no"?><!DOCTYPE svg PUBLIC "-//W3C//DTD SVG 1.1//EN" "http://www.w3.org/Graphics/SVG/1.1/DTD/svg11.dtd"><svg t="1584772691298" class="icon" viewBox="0 0 1024 1024" version="1.1" xmlns="http://www.w3.org/2000/svg" p-id="8197" xmlns:xlink="http://www.w3.org/1999/xlink" width="200" height="200"><defs><style type="text/css"></style></defs><path d="M917.333333 981.333333a21.333333 21.333333 0 0 1-21.333333-21.333333v-64c0-94.106667-76.56-170.666667-170.666667-170.666667H298.666667c-94.106667 0-170.666667 76.56-170.666667 170.666667v64a21.333333 21.333333 0 0 1-42.666667 0v-64a213.333333 213.333333 0 0 1 213.333334-213.333333h426.666666a213.333333 213.333333 0 0 1 213.333334 213.333333v64a21.333333 21.333333 0 0 1-21.333334 21.333333zM768 298.666667c0-141.386667-114.613333-256-256-256S256 157.28 256 298.666667s114.613333 256 256 256 256-114.613333 256-256zM512 512c-117.82 0-213.333333-95.513333-213.333333-213.333333s95.513333-213.333333 213.333333-213.333334 213.333333 95.513333 213.333333 213.333334-95.513333 213.333333-213.333333 213.333333z" fill="#5C5C66" p-id="8198"></path></svg>